<svg id="visual" viewBox="0 0 960 300" width="960" height="300" xmlns="http://www.w3.org/2000/svg" xmlns:xlink="http://www.w3.org/1999/xlink" version="1.1"><rect x="0" y="0" width="960" height="300" fill="#ffffff"></rect><path d="M0 208L22.8 206.3C45.7 204.7 91.3 201.3 137 198.5C182.7 195.7 228.3 193.3 274 195.5C319.7 197.7 365.3 204.3 411.2 209.2C457 214 503 217 548.8 213.8C594.7 210.7 640.3 201.3 686 197.5C731.7 193.7 777.3 195.3 823 196.2C868.7 197 914.3 197 937.2 197L960 197L960 301L937.2 301C914.3 301 868.7 301 823 301C777.3 301 731.7 301 686 301C640.3 301 594.7 301 548.8 301C503 301 457 301 411.2 301C365.3 301 319.7 301 274 301C228.3 301 182.7 301 137 301C91.3 301 45.7 301 22.8 301L0 301Z" fill="#39489e"></path><path d="M0 238L22.8 236.7C45.7 235.3 91.3 232.7 137 226C182.7 219.3 228.3 208.7 274 207C319.7 205.3 365.3 212.7 411.2 216.8C457 221 503 222 548.8 219.2C594.7 216.3 640.3 209.7 686 205.3C731.7 201 777.3 199 823 201.3C868.7 203.7 914.3 210.3 937.2 213.7L960 217L960 301L937.2 301C914.3 301 868.7 301 823 301C777.3 301 731.7 301 686 301C640.3 301 594.7 301 548.8 301C503 301 457 301 411.2 301C365.3 301 319.7 301 274 301C228.3 301 182.7 301 137 301C91.3 301 45.7 301 22.8 301L0 301Z" fill="#33408e"></path><path d="M0 231L22.8 232.2C45.7 233.3 91.3 235.7 137 237.3C182.7 239 228.3 240 274 238.5C319.7 237 365.3 233 411.2 230.2C457 227.3 503 225.7 548.8 224.7C594.7 223.7 640.3 223.3 686 225C731.7 226.7 777.3 230.3 823 235.5C868.7 240.7 914.3 247.3 937.2 250.7L960 254L960 301L937.2 301C914.3 301 868.7 301 823 301C777.3 301 731.7 301 686 301C640.3 301 594.7 301 548.8 301C503 301 457 301 411.2 301C365.3 301 319.7 301 274 301C228.3 301 182.7 301 137 301C91.3 301 45.7 301 22.8 301L0 301Z" fill="#2d397e"></path><path d="M0 248L22.8 248C45.7 248 91.3 248 137 249.2C182.7 250.3 228.3 252.7 274 254.3C319.7 256 365.3 257 411.2 259.3C457 261.7 503 265.3 548.8 267.2C594.7 269 640.3 269 686 266.3C731.7 263.7 777.3 258.3 823 255C868.7 251.7 914.3 250.3 937.2 249.7L960 249L960 301L937.2 301C914.3 301 868.7 301 823 301C777.3 301 731.7 301 686 301C640.3 301 594.7 301 548.8 301C503 301 457 301 411.2 301C365.3 301 319.7 301 274 301C228.3 301 182.7 301 137 301C91.3 301 45.7 301 22.8 301L0 301Z" fill="#27326e"></path><path d="M0 264L22.8 266.3C45.7 268.7 91.3 273.3 137 275.5C182.7 277.7 228.3 277.3 274 278C319.7 278.7 365.3 280.3 411.2 278C457 275.7 503 269.3 548.8 268.5C594.7 267.7 640.3 272.3 686 274.2C731.7 276 777.3 275 823 274.5C868.7 274 914.3 274 937.2 274L960 274L960 301L937.2 301C914.3 301 868.7 301 823 301C777.3 301 731.7 301 686 301C640.3 301 594.7 301 548.8 301C503 301 457 301 411.2 301C365.3 301 319.7 301 274 301C228.3 301 182.7 301 137 301C91.3 301 45.7 301 22.8 301L0 301Z" fill="#222b5f"></path></svg>