<svg id="visual" viewBox="0 0 900 300" width="900" height="300" xmlns="http://www.w3.org/2000/svg" xmlns:xlink="http://www.w3.org/1999/xlink" version="1.1"><rect x="0" y="0" width="900" height="300" fill="#fff"></rect><path d="M0 87L21.5 86.2C43 85.3 86 83.7 128.8 87.7C171.7 91.7 214.3 101.3 257.2 101.7C300 102 343 93 385.8 88.2C428.7 83.3 471.3 82.7 514.2 86.2C557 89.7 600 97.3 642.8 98.3C685.7 99.3 728.3 93.7 771.2 90.3C814 87 857 86 878.5 85.5L900 85L900 0L878.5 0C857 0 814 0 771.2 0C728.3 0 685.7 0 642.8 0C600 0 557 0 514.2 0C471.3 0 428.7 0 385.8 0C343 0 300 0 257.2 0C214.3 0 171.7 0 128.8 0C86 0 43 0 21.5 0L0 0Z" fill="#616db1"></path><path d="M0 89L21.5 90.8C43 92.7 86 96.3 128.8 96.3C171.7 96.3 214.3 92.7 257.2 90.3C300 88 343 87 385.8 84.8C428.7 82.7 471.3 79.3 514.2 77.2C557 75 600 74 642.8 73.2C685.7 72.3 728.3 71.7 771.2 74.2C814 76.7 857 82.3 878.5 85.2L900 88L900 0L878.5 0C857 0 814 0 771.2 0C728.3 0 685.7 0 642.8 0C600 0 557 0 514.2 0C471.3 0 428.7 0 385.8 0C343 0 300 0 257.2 0C214.3 0 171.7 0 128.8 0C86 0 43 0 21.5 0L0 0Z" fill="#5763ad"></path><path d="M0 77L21.5 73C43 69 86 61 128.8 59.5C171.7 58 214.3 63 257.2 63.3C300 63.7 343 59.3 385.8 61C428.7 62.7 471.3 70.3 514.2 73.7C557 77 600 76 642.8 73C685.7 70 728.3 65 771.2 64.2C814 63.3 857 66.7 878.5 68.3L900 70L900 0L878.5 0C857 0 814 0 771.2 0C728.3 0 685.7 0 642.8 0C600 0 557 0 514.2 0C471.3 0 428.7 0 385.8 0C343 0 300 0 257.2 0C214.3 0 171.7 0 128.8 0C86 0 43 0 21.5 0L0 0Z" fill="#4d5aa8"></path><path d="M0 45L21.5 42C43 39 86 33 128.8 32.8C171.7 32.7 214.3 38.3 257.2 41C300 43.7 343 43.3 385.8 42.5C428.7 41.7 471.3 40.3 514.2 40C557 39.7 600 40.3 642.8 40.7C685.7 41 728.3 41 771.2 39.8C814 38.7 857 36.3 878.5 35.2L900 34L900 0L878.5 0C857 0 814 0 771.2 0C728.3 0 685.7 0 642.8 0C600 0 557 0 514.2 0C471.3 0 428.7 0 385.8 0C343 0 300 0 257.2 0C214.3 0 171.7 0 128.8 0C86 0 43 0 21.5 0L0 0Z" fill="#4351a3"></path><path d="M0 26L21.5 27.5C43 29 86 32 128.8 30C171.7 28 214.3 21 257.2 20.7C300 20.3 343 26.7 385.8 28C428.7 29.3 471.3 25.7 514.2 25C557 24.3 600 26.7 642.8 25.2C685.7 23.7 728.3 18.3 771.2 19C814 19.7 857 26.3 878.5 29.7L900 33L900 0L878.5 0C857 0 814 0 771.2 0C728.3 0 685.7 0 642.8 0C600 0 557 0 514.2 0C471.3 0 428.7 0 385.8 0C343 0 300 0 257.2 0C214.3 0 171.7 0 128.8 0C86 0 43 0 21.5 0L0 0Z" fill="#39489e"></path></svg>