<svg id="visual" viewBox="0 0 960 540" width="960" height="540" xmlns="http://www.w3.org/2000/svg" xmlns:xlink="http://www.w3.org/1999/xlink" version="1.1"><g stroke-width="1" stroke-linejoin="bevel"><path d="M494.3 291L429.7 283L459.7 324Z" fill="#545fa0" stroke="#545fa0"></path><path d="M494.3 291L439.7 215L429.7 283Z" fill="#414b87" stroke="#414b87"></path><path d="M459.7 324L537.3 342L494.3 291Z" fill="#353e77" stroke="#353e77"></path><path d="M494.3 291L542.3 200L439.7 215Z" fill="#545fa0" stroke="#545fa0"></path><path d="M329 216L350 295L429.7 283Z" fill="#47528f" stroke="#47528f"></path><path d="M429.7 283L338 329L459.7 324Z" fill="#545fa0" stroke="#545fa0"></path><path d="M537.3 342L542.3 200L494.3 291Z" fill="#4e5898" stroke="#4e5898"></path><path d="M350 295L338 329L429.7 283Z" fill="#4e5898" stroke="#4e5898"></path><path d="M459.7 324L539.3 425L537.3 342Z" fill="#3b447f" stroke="#3b447f"></path><path d="M389.7 113L329 216L439.7 215Z" fill="#353e77" stroke="#353e77"></path><path d="M439.7 215L329 216L429.7 283Z" fill="#3b447f" stroke="#3b447f"></path><path d="M350 295L239.3 217L338 329Z" fill="#414b87" stroke="#414b87"></path><path d="M338 329L393.7 428L459.7 324Z" fill="#283167" stroke="#283167"></path><path d="M393.7 428L539.3 425L459.7 324Z" fill="#414b87" stroke="#414b87"></path><path d="M677 202L567.3 108L542.3 200Z" fill="#5b66a8" stroke="#5b66a8"></path><path d="M567.3 108L389.7 113L439.7 215Z" fill="#545fa0" stroke="#545fa0"></path><path d="M338 329L335 452L393.7 428Z" fill="#47528f" stroke="#47528f"></path><path d="M393.7 428L428.7 540L539.3 425Z" fill="#2e376f" stroke="#2e376f"></path><path d="M196.3 364L335 452L338 329Z" fill="#5b66a8" stroke="#5b66a8"></path><path d="M675 262L542.3 200L537.3 342Z" fill="#47528f" stroke="#47528f"></path><path d="M542.3 200L567.3 108L439.7 215Z" fill="#545fa0" stroke="#545fa0"></path><path d="M673 370L675 262L537.3 342Z" fill="#4e5898" stroke="#4e5898"></path><path d="M539.3 425L673 370L537.3 342Z" fill="#2e376f" stroke="#2e376f"></path><path d="M675 262L677 202L542.3 200Z" fill="#616db1" stroke="#616db1"></path><path d="M728.7 216L677 202L675 262Z" fill="#4e5898" stroke="#4e5898"></path><path d="M311 94L239.3 217L329 216Z" fill="#616db1" stroke="#616db1"></path><path d="M329 216L239.3 217L350 295Z" fill="#2e376f" stroke="#2e376f"></path><path d="M316 0L311 94L389.7 113Z" fill="#4e5898" stroke="#4e5898"></path><path d="M389.7 113L311 94L329 216Z" fill="#283167" stroke="#283167"></path><path d="M352 540L428.7 540L393.7 428Z" fill="#222b5f" stroke="#222b5f"></path><path d="M539.3 425L662 451L673 370Z" fill="#222b5f" stroke="#222b5f"></path><path d="M428.7 540L506.3 540L539.3 425Z" fill="#353e77" stroke="#353e77"></path><path d="M609 540L662 451L539.3 425Z" fill="#3b447f" stroke="#3b447f"></path><path d="M734.7 377L719.7 277L673 370Z" fill="#414b87" stroke="#414b87"></path><path d="M673 370L719.7 277L675 262Z" fill="#414b87" stroke="#414b87"></path><path d="M335 452L352 540L393.7 428Z" fill="#616db1" stroke="#616db1"></path><path d="M200.3 540L352 540L335 452Z" fill="#616db1" stroke="#616db1"></path><path d="M239.3 217L196.3 364L338 329Z" fill="#222b5f" stroke="#222b5f"></path><path d="M719.7 277L728.7 216L675 262Z" fill="#222b5f" stroke="#222b5f"></path><path d="M677 202L656 70L567.3 108Z" fill="#47528f" stroke="#47528f"></path><path d="M81.7 169L185.3 241L95.7 98Z" fill="#616db1" stroke="#616db1"></path><path d="M239.3 217L185.3 241L196.3 364Z" fill="#545fa0" stroke="#545fa0"></path><path d="M731.7 454L734.7 377L673 370Z" fill="#414b87" stroke="#414b87"></path><path d="M719.7 277L817.3 233L728.7 216Z" fill="#2e376f" stroke="#2e376f"></path><path d="M506.3 540L609 540L539.3 425Z" fill="#222b5f" stroke="#222b5f"></path><path d="M662 451L731.7 454L673 370Z" fill="#545fa0" stroke="#545fa0"></path><path d="M550.3 0L442.7 0L567.3 108Z" fill="#616db1" stroke="#616db1"></path><path d="M567.3 108L442.7 0L389.7 113Z" fill="#5b66a8" stroke="#5b66a8"></path><path d="M754.7 113L656 70L677 202Z" fill="#222b5f" stroke="#222b5f"></path><path d="M619 0L550.3 0L567.3 108Z" fill="#222b5f" stroke="#222b5f"></path><path d="M67.7 344L174.3 416L196.3 364Z" fill="#616db1" stroke="#616db1"></path><path d="M196.3 364L174.3 416L335 452Z" fill="#5b66a8" stroke="#5b66a8"></path><path d="M763.7 540L731.7 454L662 451Z" fill="#5b66a8" stroke="#5b66a8"></path><path d="M316 0L239.3 61L311 94Z" fill="#4e5898" stroke="#4e5898"></path><path d="M311 94L239.3 61L239.3 217Z" fill="#616db1" stroke="#616db1"></path><path d="M442.7 0L316 0L389.7 113Z" fill="#2e376f" stroke="#2e376f"></path><path d="M656 70L619 0L567.3 108Z" fill="#283167" stroke="#283167"></path><path d="M728.7 216L754.7 113L677 202Z" fill="#414b87" stroke="#414b87"></path><path d="M656 70L726.7 0L619 0Z" fill="#222b5f" stroke="#222b5f"></path><path d="M836.3 185L754.7 113L728.7 216Z" fill="#414b87" stroke="#414b87"></path><path d="M817.3 233L719.7 277L853.3 329Z" fill="#353e77" stroke="#353e77"></path><path d="M81.7 169L103.7 251L185.3 241Z" fill="#414b87" stroke="#414b87"></path><path d="M185.3 241L103.7 251L196.3 364Z" fill="#283167" stroke="#283167"></path><path d="M853.3 329L719.7 277L734.7 377Z" fill="#283167" stroke="#283167"></path><path d="M174.3 416L200.3 540L335 452Z" fill="#414b87" stroke="#414b87"></path><path d="M144.7 540L200.3 540L174.3 416Z" fill="#4e5898" stroke="#4e5898"></path><path d="M316 0L246.3 0L239.3 61Z" fill="#3b447f" stroke="#3b447f"></path><path d="M95.7 98L185.3 241L239.3 217Z" fill="#545fa0" stroke="#545fa0"></path><path d="M960 187L836.3 185L817.3 233Z" fill="#414b87" stroke="#414b87"></path><path d="M817.3 233L836.3 185L728.7 216Z" fill="#47528f" stroke="#47528f"></path><path d="M763.7 540L826.3 430L731.7 454Z" fill="#616db1" stroke="#616db1"></path><path d="M731.7 454L826.3 430L734.7 377Z" fill="#545fa0" stroke="#545fa0"></path><path d="M609 540L763.7 540L662 451Z" fill="#616db1" stroke="#616db1"></path><path d="M826.3 430L853.3 329L734.7 377Z" fill="#3b447f" stroke="#3b447f"></path><path d="M869.3 0L726.7 0L754.7 113Z" fill="#545fa0" stroke="#545fa0"></path><path d="M754.7 113L726.7 0L656 70Z" fill="#616db1" stroke="#616db1"></path><path d="M103.7 251L67.7 344L196.3 364Z" fill="#5b66a8" stroke="#5b66a8"></path><path d="M95.7 98L239.3 217L239.3 61Z" fill="#283167" stroke="#283167"></path><path d="M103.7 251L0 289L67.7 344Z" fill="#47528f" stroke="#47528f"></path><path d="M84.7 436L144.7 540L174.3 416Z" fill="#3b447f" stroke="#3b447f"></path><path d="M67.7 344L84.7 436L174.3 416Z" fill="#4e5898" stroke="#4e5898"></path><path d="M117.7 0L95.7 98L239.3 61Z" fill="#5b66a8" stroke="#5b66a8"></path><path d="M763.7 540L820.3 540L826.3 430Z" fill="#222b5f" stroke="#222b5f"></path><path d="M960 326L960 299L853.3 329Z" fill="#283167" stroke="#283167"></path><path d="M836.3 185L867.3 98L754.7 113Z" fill="#2e376f" stroke="#2e376f"></path><path d="M960 187L867.3 98L836.3 185Z" fill="#47528f" stroke="#47528f"></path><path d="M246.3 0L117.7 0L239.3 61Z" fill="#283167" stroke="#283167"></path><path d="M0 182L81.7 169L95.7 98Z" fill="#5b66a8" stroke="#5b66a8"></path><path d="M0 182L103.7 251L81.7 169Z" fill="#616db1" stroke="#616db1"></path><path d="M0 182L0 289L103.7 251Z" fill="#353e77" stroke="#353e77"></path><path d="M67.7 344L0 378L84.7 436Z" fill="#5b66a8" stroke="#5b66a8"></path><path d="M0 289L0 378L67.7 344Z" fill="#545fa0" stroke="#545fa0"></path><path d="M84.7 436L0 540L144.7 540Z" fill="#3b447f" stroke="#3b447f"></path><path d="M0 56L0 182L95.7 98Z" fill="#3b447f" stroke="#3b447f"></path><path d="M0 378L0 417L84.7 436Z" fill="#545fa0" stroke="#545fa0"></path><path d="M960 326L853.3 329L960 432Z" fill="#47528f" stroke="#47528f"></path><path d="M853.3 329L960 299L817.3 233Z" fill="#545fa0" stroke="#545fa0"></path><path d="M960 432L853.3 329L826.3 430Z" fill="#222b5f" stroke="#222b5f"></path><path d="M960 0L869.3 0L867.3 98Z" fill="#47528f" stroke="#47528f"></path><path d="M867.3 98L869.3 0L754.7 113Z" fill="#3b447f" stroke="#3b447f"></path><path d="M960 299L960 187L817.3 233Z" fill="#616db1" stroke="#616db1"></path><path d="M117.7 0L0 56L95.7 98Z" fill="#616db1" stroke="#616db1"></path><path d="M960 540L960 432L826.3 430Z" fill="#2e376f" stroke="#2e376f"></path><path d="M0 417L0 540L84.7 436Z" fill="#222b5f" stroke="#222b5f"></path><path d="M960 187L960 108L867.3 98Z" fill="#2e376f" stroke="#2e376f"></path><path d="M117.7 0L0 0L0 56Z" fill="#414b87" stroke="#414b87"></path><path d="M820.3 540L960 540L826.3 430Z" fill="#2e376f" stroke="#2e376f"></path><path d="M960 108L960 0L867.3 98Z" fill="#222b5f" stroke="#222b5f"></path></g></svg>