<svg id="visual" viewBox="0 0 900 600" width="900" height="600" xmlns="http://www.w3.org/2000/svg" xmlns:xlink="http://www.w3.org/1999/xlink" version="1.1"><rect x="0" y="0" width="900" height="600" fill="#fff"></rect><path d="M0 470L21.5 475.8C43 481.7 86 493.3 128.8 484.5C171.7 475.7 214.3 446.3 257.2 447.8C300 449.3 343 481.7 385.8 487.8C428.7 494 471.3 474 514.2 473C557 472 600 490 642.8 496.2C685.7 502.3 728.3 496.7 771.2 488.2C814 479.7 857 468.3 878.5 462.7L900 457L900 601L878.5 601C857 601 814 601 771.2 601C728.3 601 685.7 601 642.8 601C600 601 557 601 514.2 601C471.3 601 428.7 601 385.8 601C343 601 300 601 257.2 601C214.3 601 171.7 601 128.8 601C86 601 43 601 21.5 601L0 601Z" fill="#fff" stroke-linecap="round" stroke-linejoin="miter"></path></svg>