<svg id="visual" viewBox="0 0 960 540" width="960" height="540" xmlns="http://www.w3.org/2000/svg" xmlns:xlink="http://www.w3.org/1999/xlink" version="1.1"><rect x="0" y="0" width="960" height="540" fill="#222b5f"></rect><path d="M0 350L10.7 358.8C21.3 367.7 42.7 385.3 64 385.7C85.3 386 106.7 369 128 362.3C149.3 355.7 170.7 359.3 192 360.2C213.3 361 234.7 359 256 354.2C277.3 349.3 298.7 341.7 320 349.5C341.3 357.3 362.7 380.7 384 382.2C405.3 383.7 426.7 363.3 448 347.3C469.3 331.3 490.7 319.7 512 321C533.3 322.3 554.7 336.7 576 353C597.3 369.3 618.7 387.7 640 394.5C661.3 401.3 682.7 396.7 704 390.8C725.3 385 746.7 378 768 370.3C789.3 362.7 810.7 354.3 832 343.3C853.3 332.3 874.7 318.7 896 314C917.3 309.3 938.7 313.7 949.3 315.8L960 318L960 541L949.3 541C938.7 541 917.3 541 896 541C874.7 541 853.3 541 832 541C810.7 541 789.3 541 768 541C746.7 541 725.3 541 704 541C682.7 541 661.3 541 640 541C618.7 541 597.3 541 576 541C554.7 541 533.3 541 512 541C490.7 541 469.3 541 448 541C426.7 541 405.3 541 384 541C362.7 541 341.3 541 320 541C298.7 541 277.3 541 256 541C234.7 541 213.3 541 192 541C170.7 541 149.3 541 128 541C106.7 541 85.3 541 64 541C42.7 541 21.3 541 10.7 541L0 541Z" fill="#39489e" stroke-linecap="round" stroke-linejoin="miter"></path></svg>